<svg width="114" height="72" viewBox="0 0 114 72" fill="none" xmlns="http://www.w3.org/2000/svg">
<g id="03">
<path d="M26.3444 71.3018C20.8478 71.3018 16.1299 69.9109 12.191 67.1292C8.27436 64.3252 5.25897 60.2862 3.14486 55.012C1.05301 49.7156 0.00708008 43.3399 0.00708008 35.8849C0.0293338 28.4299 1.08639 22.0876 3.17825 16.8579C5.29236 11.606 8.30774 7.60034 12.2244 4.84087C16.1633 2.0814 20.87 0.70166 26.3444 0.70166C31.8189 0.70166 36.5255 2.0814 40.4645 4.84087C44.4034 7.60034 47.4188 11.606 49.5106 16.8579C51.6247 22.1098 52.6818 28.4521 52.6818 35.8849C52.6818 43.3622 51.6247 49.749 49.5106 55.0454C47.4188 60.3196 44.4034 64.3475 40.4645 67.1292C36.5478 69.9109 31.8411 71.3018 26.3444 71.3018ZM26.3444 60.8536C30.6172 60.8536 33.9886 58.7507 36.4588 54.5447C38.9512 50.3165 40.1974 44.0965 40.1974 35.8849C40.1974 30.455 39.6299 25.893 38.495 22.1988C37.3601 18.5047 35.7578 15.723 33.6882 13.8537C31.6186 11.9621 29.1707 11.0163 26.3444 11.0163C22.094 11.0163 18.7336 13.1304 16.2635 17.3586C13.7933 21.5646 12.5471 27.74 12.5248 35.8849C12.5026 41.3371 13.0478 45.9214 14.1605 49.6377C15.2954 53.3541 16.8977 56.1581 18.9673 58.0497C21.0369 59.919 23.496 60.8536 26.3444 60.8536Z" fill="#12123B" fill-opacity="0.27"/>
<path d="M88.3073 70.9346C83.5005 70.9346 79.2278 70.1112 75.4891 68.4644C71.7728 66.8177 68.8353 64.5255 66.6766 61.588C64.518 58.6505 63.372 55.2568 63.2384 51.4069H75.7896C75.9008 53.254 76.5128 54.8674 77.6255 56.2471C78.7382 57.6046 80.2181 58.6617 82.0651 59.4183C83.9122 60.1749 85.9818 60.5532 88.2739 60.5532C90.7219 60.5532 92.8916 60.1304 94.7832 59.2848C96.6748 58.4169 98.1546 57.2152 99.2228 55.6796C100.291 54.1441 100.814 52.375 100.792 50.3721C100.814 48.3025 100.28 46.4777 99.1894 44.8977C98.099 43.3177 96.519 42.0826 94.4494 41.1924C92.402 40.3023 89.9319 39.8572 87.0389 39.8572H80.997V30.3103H87.0389C89.42 30.3103 91.5007 29.8986 93.2811 29.0752C95.0836 28.2519 96.4967 27.0947 97.5204 25.6036C98.5441 24.0904 99.0448 22.3435 99.0225 20.3629C99.0448 18.4268 98.6108 16.7466 97.7207 15.3224C96.8528 13.8759 95.6177 12.7521 94.0154 11.951C92.4354 11.1498 90.5772 10.7492 88.4408 10.7492C86.349 10.7492 84.4129 11.1276 82.6326 11.8842C80.8523 12.6408 79.4169 13.7201 78.3265 15.1221C77.2361 16.5019 76.6575 18.1486 76.5907 20.0625H64.6738C64.7628 16.2348 65.8644 12.8745 67.9785 9.98149C70.1149 7.06624 72.9633 4.79636 76.5239 3.17183C80.0846 1.52505 84.0791 0.70166 88.5076 0.70166C93.0696 0.70166 97.0308 1.55843 100.391 3.27197C103.774 4.96326 106.389 7.24427 108.236 10.115C110.083 12.9858 111.006 16.1569 111.006 19.6285C111.028 23.4784 109.894 26.7052 107.601 29.3089C105.331 31.9126 102.349 33.615 98.6553 34.4161V34.9502C103.462 35.6179 107.145 37.3982 109.704 40.2911C112.286 43.1619 113.565 46.7336 113.543 51.0063C113.543 54.834 112.453 58.2611 110.272 61.2876C108.113 64.2919 105.131 66.6508 101.326 68.3643C97.5427 70.0778 93.2032 70.9346 88.3073 70.9346Z" fill="#12123B" fill-opacity="0.27"/>
</g>
</svg>
