<svg width="111" height="71" viewBox="0 0 111 71" fill="none" xmlns="http://www.w3.org/2000/svg">
<g id="02">
<path d="M26.3374 70.6001C20.8407 70.6001 16.1229 69.2093 12.1839 66.4276C8.26728 63.6236 5.25189 59.5845 3.13778 54.3104C1.04593 49.014 0 42.6383 0 35.1832C0.0222538 27.7282 1.07931 21.3859 3.17116 16.1562C5.28527 10.9044 8.30066 6.89868 12.2173 4.13921C16.1562 1.37974 20.8629 0 26.3374 0C31.8118 0 36.5185 1.37974 40.4574 4.13921C44.3963 6.89868 47.4117 10.9044 49.5036 16.1562C51.6177 21.4081 52.6747 27.7505 52.6747 35.1832C52.6747 42.6605 51.6177 49.0474 49.5036 54.3438C47.4117 59.6179 44.3963 63.6458 40.4574 66.4276C36.5407 69.2093 31.834 70.6001 26.3374 70.6001ZM26.3374 60.152C30.6101 60.152 33.9815 58.049 36.4517 53.843C38.9441 49.6148 40.1903 43.3949 40.1903 35.1832C40.1903 29.7533 39.6229 25.1913 38.4879 21.4972C37.353 17.803 35.7507 15.0213 33.6811 13.152C31.6115 11.2604 29.1636 10.3146 26.3374 10.3146C22.0869 10.3146 18.7266 12.4287 16.2564 16.657C13.7862 20.8629 12.54 27.0384 12.5178 35.1832C12.4955 40.6354 13.0407 45.2197 14.1534 48.9361C15.2884 52.6525 16.8906 55.4564 18.9602 57.348C21.0298 59.2173 23.4889 60.152 26.3374 60.152Z" fill="#12123B" fill-opacity="0.27"/>
<path d="M63.7654 69.2983V60.3523L87.4991 37.0859C89.769 34.7938 91.6606 32.7576 93.1738 30.9773C94.6871 29.197 95.822 27.4723 96.5787 25.8033C97.3353 24.1342 97.7136 22.3539 97.7136 20.4624C97.7136 18.3037 97.224 16.4567 96.2449 14.9212C95.2657 13.3634 93.9193 12.1617 92.2058 11.3161C90.4922 10.4704 88.545 10.0476 86.3642 10.0476C84.1165 10.0476 82.1471 10.5149 80.4558 11.4496C78.7645 12.362 77.4515 13.6638 76.5169 15.3551C75.6045 17.0464 75.1483 19.0604 75.1483 21.397H63.3649C63.3649 17.0575 64.3552 13.2855 66.3358 10.081C68.3163 6.87642 71.0424 4.39512 74.514 2.63708C78.0079 0.879025 82.0136 0 86.5311 0C91.1154 0 95.1433 0.856771 98.6149 2.57031C102.086 4.28385 104.779 6.63163 106.693 9.61364C108.629 12.5956 109.597 16.0005 109.597 19.8281C109.597 22.3873 109.108 24.902 108.128 27.3722C107.149 29.8423 105.425 32.5795 102.954 35.5838C100.506 38.5881 97.0682 42.2266 92.6397 46.4993L80.8564 58.483V58.9503H110.632V69.2983H63.7654Z" fill="#12123B" fill-opacity="0.27"/>
</g>
</svg>
