<svg width="94" height="73" viewBox="0 0 94 73" fill="none" xmlns="http://www.w3.org/2000/svg">
<g id="01">
<path d="M27.0358 73C21.3934 73 16.5504 71.5619 12.5071 68.6856C8.48653 65.7863 5.39117 61.6099 3.221 56.1565C1.07367 50.6801 0 44.0876 0 36.3792C0.0228439 28.6708 1.10793 22.1128 3.25526 16.7054C5.42544 11.275 8.52079 7.13317 12.5413 4.27991C16.5847 1.42663 21.4162 0 27.0358 0C32.6554 0 37.4869 1.42663 41.5303 4.27991C45.5737 7.13317 48.669 11.275 50.8164 16.7054C52.9865 22.1359 54.0716 28.6938 54.0716 36.3792C54.0716 44.1106 52.9865 50.7146 50.8164 56.191C48.669 61.6444 45.5737 65.8093 41.5303 68.6856C37.5098 71.5619 32.6783 73 27.0358 73ZM27.0358 62.1967C31.4219 62.1967 34.8827 60.0222 37.4184 55.6733C39.9769 51.3013 41.2562 44.87 41.2562 36.3792C41.2562 30.7647 40.6737 26.0476 39.5086 22.2279C38.3436 18.4082 36.6988 15.5319 34.5743 13.5991C32.4498 11.6432 29.937 10.6652 27.0358 10.6652C22.6726 10.6652 19.2232 12.8512 16.6875 17.2232C14.1518 21.5721 12.8726 27.9574 12.8497 36.3792C12.8269 42.0167 13.3866 46.7568 14.5288 50.5995C15.6938 54.4422 17.3386 57.3415 19.463 59.2974C21.5875 61.2303 24.1118 62.1967 27.0358 62.1967Z" fill="#12123B" fill-opacity="0.27"/>
<path d="M94 0.966429V71.6539H81.2873V13.4265H80.8762L64.4628 23.9882V12.253L81.9041 0.966429H94Z" fill="#12123B" fill-opacity="0.27"/>
</g>
</svg>
